# AST/ASF file generated using VICON BodyLanguage
# -----------------------------------------------
:version 1.10
:name VICON
:units
  mass 1.0
  length 0.45
  angle deg
:documentation
   .ast/.asf automatically generated from VICON data using
   VICON BodyBuilder and BodyLanguage model FoxedUp or BRILLIANT.MOD
:root
   order TX TY TZ RX RY RZ
   axis XYZ
   position 0 0 0  
   orientation 0 0 0 
:bonedata
  begin
     id 1 
     name lhipjoint
     direction 0.722297 -0.617336 0.311742 
     length 2.6635 
     axis 0 0 0  XYZ
  end
  begin
     id 2 
     name lfemur
     direction 0.34202 -0.939693 0  
     length 7.39349  
     axis 0 0 20  XYZ
    dof rx ry rz
    limits (-160.0 20.0)
           (-70.0 70.0)
           (-60.0 70.0)
  end
  begin
     id 3 
     name ltibia
     direction 0.34202 -0.939693 0   
     length 7.36294   
     axis 0 0 20   XYZ
    dof rx
    limits (-10.0 170.0)
  end
  begin
     id 4 
     name lfoot
     direction 0.104879 -0.288152 0.951824   
     length 2.16981   
     axis -90 7.62852e-016 20   XYZ
    dof rx rz
    limits (-45.0 90.0)
           (-70.0 20.0)
  end
  begin
     id 5 
     name ltoes
     direction 1.53586e-011 -4.21895e-011 1   
     length 1.08218   
     axis -90 7.62852e-016 20   XYZ
    dof rx
    limits (-90.0 20.0)
  end
  begin
     id 6 
     name rhipjoint
     direction -0.75102 -0.589393 0.297631   
     length 2.78977  
     axis 0 0 0  XYZ 
  end
  begin
     id 7 
     name rfemur
     direction -0.34202 -0.939693 0   
     length 7.46076   
     axis 0 0 -20   XYZ
    dof rx ry rz
    limits (-160.0 20.0)
           (-70.0 70.0)
           (-70.0 60.0)
  end
  begin
     id 8 
     name rtibia
     direction -0.34202 -0.939693 0   
     length 7.31726   
     axis 0 0 -20   XYZ
    dof rx
    limits (-10.0 170.0)
 end
 begin
     id 9 
     name rfoot
     direction -0.107991 -0.296704 0.948844   
     length 2.09388  
     axis -90 -7.62852e-016 -20   XYZ
    dof rx rz
    limits (-45.0 90.0)
           (-20.0 70.0)
  end
  begin
     id 10 
     name rtoes
     direction -1.53559e-011 -4.21911e-011 1   
     length 1.04433   
     axis -90 -7.62852e-016 -20   XYZ
    dof rx
    limits (-90.0 20.0)
  end
  begin
     id 11 
     name lowerback
     direction 0.0165164 0.98272 0.184358   
     length 1.71896   
     axis 0 0 0   XYZ
    dof rx ry rz
    limits (-20.0 45.0)
           (-30.0 30.0)
           (-30.0 30.0)
  end
  begin
     id 12 
     name upperback
     direction -0.00887249 0.992297 0.123566   
     length 1.71504   
     axis 0 0 0   XYZ
    dof rx ry rz
    limits (-20.0 45.0)
           (-30.0 30.0)
           (-30.0 30.0)
  end
  begin
     id 13 
     name thorax
     direction -0.0157026 0.998908 0.0440032   
     length 1.77022   
     axis 0 0 0   XYZ
    dof rx ry rz
    limits (-20.0 45.0)
           (-30.0 30.0)
           (-30.0 30.0)
  end
  begin
     id 14 
     name lowerneck
     direction -0.0238856 0.998137 0.0561411   
     length 1.89341   
     axis 0 0 0   XYZ
    dof rx ry rz
    limits (-20.0 45.0)
           (-30.0 30.0)
           (-30.0 30.0)
  end
  begin
     id 15 
     name upperneck
     direction 0.0276574 0.952253 -0.304056   
     length 1.86999   
     axis 0 0 0   XYZ
    dof rx ry rz
    limits (-20.0 45.0)
           (-30.0 30.0)
           (-30.0 30.0)
  end
  begin
     id 16
     name head
     direction 0.00800083 0.994258 -0.106712  
     length 1.91492  
     axis 0 0 0   XYZ
    dof rx ry rz
    limits (-20.0 45.0)
           (-30.0 30.0)
           (-30.0 30.0)
  end
  begin
     id 17 
     name lclavicle
     direction 0.97203 0.225407 0.06595  
     length 3.34889  
     axis 0 0 0   XYZ
    dof ry rz
    limits (-20.0 10.0)
           (0.0 20.0)
  end
  begin
     id 18 
     name lhumerus
     direction 1 -4.48973e-011 2.20267e-027   
     length 4.85645   
     axis 180 -30 -90   XYZ
    dof rx ry rz
    limits (-60.0 90.0)
           (-90.0 90.0)
           (-90.0 90.0)
  end
  begin
     id 19
     name lradius
     direction 1 -4.4897e-011 4.60472e-027   
     length 2.79874   
     axis 180 -30 -90   XYZ
    dof rx
    limits (-10.0 170.0)
  end
  begin
     id 20
     name lwrist
     direction 1 -4.48952e-011 1.14928e-026   
     length 1.39937   
     axis -6.29373e-015 90 90   XYZ
    dof ry
    limits (-180.0 0.0)
 end
  begin
     id 21 
     name lhand
     direction 1 -4.48967e-011 2.29886e-026   
     length 0.573398   
     axis -1.46689e-014 90 90   XYZ
    dof rx rz
    limits (-90.0 90.0)
           (-45.0 45.0)
  end
  begin
     id 22 
     name lfingers
     direction 1 -4.48955e-011 4.59726e-026   
     length 0.462289   
     axis -2.93383e-014 90 90   XYZ
    dof rx
    limits (0.0 90.0)
  end
  begin
     id 23
     name lthumb
     direction 0.707107 -6.34866e-011 0.707107   
     length 0.663757   
     axis -90 45 5.69224e-014   XYZ
    dof rx rz
    limits (-45.0 45.0)
           (-45.0 45.0)
  end
  begin
     id 24 
     name rclavicle
     direction -0.981571 0.157346 0.108443   
     length 3.35257  
     axis 0 0 0   XYZ 
    dof ry rz
    limits (-10.0 20.0)
           (-20.0 0.0)
  end
  begin
     id 25 
     name rhumerus
     direction -1 -4.48967e-011 8.58308e-029  
     length 4.67018   
     axis 180 30 90   XYZ
    dof rx ry rz
    limits (-90.0 60.0)
           (-90.0 90.0)
           (-90.0 90.0)
  end
  begin
     id 26 
     name rradius
     direction -1 -4.48958e-011 4.52548e-027   
     length 2.65534   
     axis 180 30 90   XYZ
    dof rx
    limits (-10.0 170.0)
  end
  begin
     id 27 
     name rwrist
     direction -1 -4.48977e-011 1.14952e-026   
     length 1.32767   
     axis -6.29373e-015 -90 -90   XYZ
    dof ry
    limits (-180.0 0.0)
  end
  begin
     id 28
     name rhand
     direction -1 -4.48924e-011 2.29804e-026   
     length 0.594069   
     axis -1.46689e-014 -90 -90   XYZ
    dof rx rz
    limits (-90.0 90.0)
           (-45.0 45.0)
  end
  begin
     id 29
     name rfingers
     direction -1 -4.48998e-011 4.59888e-026   
     length 0.478954   
     axis -2.93383e-014 -90 -90   XYZ
    dof rx
    limits (0.0 90.0)
  end
  begin
     id 30
     name rthumb
     direction -0.707107 -6.34933e-011 0.707107   
     length 0.687685   
     axis -90 -45 -5.69224e-014   XYZ
    dof rx rz
    limits (-45.0 45.0)
           (-45.0 45.0)
  end
:hierarchy
  begin
    root lhipjoint rhipjoint lowerback
    lhipjoint lfemur
    lfemur ltibia
    ltibia lfoot
    lfoot ltoes
    rhipjoint rfemur
    rfemur rtibia
    rtibia rfoot
    rfoot rtoes
    lowerback upperback
    upperback thorax
    thorax lowerneck lclavicle rclavicle
    lowerneck upperneck
    upperneck head
    lclavicle lhumerus
    lhumerus lradius
    lradius lwrist
    lwrist lhand lthumb
    lhand lfingers
    rclavicle rhumerus
    rhumerus rradius
    rradius rwrist
    rwrist rhand rthumb
    rhand rfingers
  end

#!OML:ASF E:\pregnant2\Project 1\Capture day 1\Session 1\pregnant2.ASF
:FULLY-SPECIFIED
:DEGREES
905
root 4.6828 22.5459 -16.428 25.4102 0.774481 1.032
lowerback -6.37886 -1.73798 -4.20941
upperback -12.1156 -2.22454 1.59619
thorax -9.07171 -0.648812 4.08247
lowerneck -9.84506 0.315047 -4.20282
upperneck 50.6788 4.1089 -4.10389
head 23.589 0.172588 -0.66375
rclavicle 2.56556e-015 4.37326e-015
rhumerus -55.6405 10.1401 -79.5875
rradius 46.6456
rwrist 4.00902
rhand -13.5253 -14.9275
rfingers 7.12502
rthumb 12.5868 -44.5283
lclavicle 2.56556e-015 4.37326e-015
lhumerus -53.3244 7.39327 79.8499
lradius 36.8133
lwrist -4.63212
lhand -10.9046 26.6699
lfingers 7.12502
lthumb 15.1124 56.0982
rfemur -46.356 4.7996 23.0145
rtibia 39.1104
rfoot -14.4224 -13.7386
rtoes 2.88053
lfemur -61.5432 3.38137 -27.1954
ltibia 92.3126
lfoot -13.883 11.1302
ltoes -17.7287
906
root 4.67606 22.5458 -16.383 25.6189 0.938227 1.11304
lowerback -6.40722 -1.7824 -4.30701
upperback -12.1049 -2.28094 1.6094
thorax -9.03503 -0.66861 4.15024
lowerneck -9.82047 0.279448 -4.27148
upperneck 50.665 4.03358 -4.03175
head 23.5542 0.141116 -0.62322
rclavicle 2.31087e-015 -5.1684e-015
rhumerus -55.5384 10.4734 -79.8658
rradius 47.9131
rwrist 3.46915
rhand -13.5381 -15.2825
rfingers 7.12502
rthumb 12.5745 -44.884
lclavicle 2.31087e-015 -5.1684e-015
lhumerus -53.1178 7.33077 79.9774
lradius 36.832
lwrist -4.5386
lhand -10.2849 27.2206
lfingers 7.12502
lthumb 15.7093 56.603
rfemur -46.3962 5.04725 22.8331
rtibia 39.1351
rfoot -14.5797 -14.2304
rtoes 2.44639
lfemur -62.3046 2.94356 -27.1994
ltibia 91.3802
lfoot -13.8577 11.3289
ltoes -17.4994
907
root 4.68063 22.5613 -16.3056 25.3524 0.67804 1.02801
lowerback -6.29653 -1.66548 -4.25102
upperback -12.0397 -2.12818 1.60198
thorax -9.042 -0.598569 4.11185
lowerneck -9.5691 0.291541 -4.3044
upperneck 50.7575 4.0364 -4.0051
head 23.54 0.140906 -0.604882
rclavicle 4.79568e-015 -1.25234e-014
rhumerus -55.717 10.9056 -80.1999
rradius 49.1023
rwrist 2.97636
rhand -13.9626 -15.617
rfingers 7.12502
rthumb 12.1652 -45.2433
lclavicle 4.79568e-015 -1.25234e-014
lhumerus -53.2444 7.25309 80.0457
lradius 36.8172
lwrist -4.29814
lhand -10.1321 27.1276
lfingers 7.12502
lthumb 15.8564 56.4983
rfemur -45.7703 5.49062 22.7393
rtibia 39.1142
rfoot -15.0224 -14.4372
rtoes 2.84261
lfemur -62.1605 3.06299 -27.2622
ltibia 90.171
lfoot -14.0302 11.6743
ltoes -17.2935
908
root 4.67609 22.5534 -16.2674 25.7803 0.931034 1.10069
lowerback -6.44444 -1.74967 -4.30242
upperback -12.1144 -2.23391 1.62484
thorax -9.029 -0.644542 4.16285
lowerneck -9.6788 0.300858 -4.22188
upperneck 50.821 4.04433 -4.00861
head 23.656 0.158267 -0.623947
rclavicle 2.50966e-015 6.75868e-015
rhumerus -55.6107 11.3087 -80.5344
rradius 50.2453
rwrist 2.39813
rhand -14.7057 -14.5559
rfingers 7.12502
rthumb 11.4486 -44.2233
lclavicle 2.50966e-015 6.75868e-015
lhumerus -53.0419 7.18613 80.1369
lradius 36.7463
lwrist -3.95562
lhand -10.2963 26.9327
lfingers 7.12502
lthumb 15.6983 56.3159
rfemur -46.1066 5.57749 22.619
rtibia 39.1794
rfoot -15.0458 -14.8304
rtoes 1.98428
lfemur -63.097 2.53903 -27.265
ltibia 88.9671
lfoot -14.0444 11.9244
ltoes -17.4898
909
root 4.67774 22.5525 -16.2071 25.8679 0.887855 1.1096
lowerback -6.55883 -1.71569 -4.24461
upperback -12.071 -2.18352 1.60642
thorax -8.91991 -0.629708 4.1049
lowerneck -9.61391 0.266582 -4.39659
upperneck 50.8386 3.99865 -3.9205
head 23.6352 0.116922 -0.54895
rclavicle 8.07563e-016 7.95139e-016
rhumerus -55.6287 11.7505 -80.8779
rradius 51.5472
rwrist 1.97024
rhand -14.5796 -15.88
rfingers 7.12502
rthumb 11.5702 -45.5406
lclavicle 8.07563e-016 7.95139e-016
lhumerus -52.9341 7.15149 80.1707
lradius 36.8113
lwrist -3.80148
lhand -10.131 26.7689
lfingers 7.12502
lthumb 15.8575 56.1396
rfemur -45.9721 5.90749 22.4614
rtibia 39.1986
rfoot -15.3842 -15.1623
rtoes 2.11537
lfemur -63.3787 2.29487 -27.2784
ltibia 87.5143
lfoot -14.1529 12.2819
ltoes -17.5763
910
root 4.68219 22.5581 -16.1429 25.8983 0.893324 1.14725
lowerback -6.67175 -1.70591 -4.19795
upperback -11.9645 -2.16593 1.56978
thorax -8.73678 -0.6345 4.03211
lowerneck -9.80899 0.26093 -4.47547
upperneck 50.9031 3.98777 -3.80968
head 23.7773 0.10486 -0.474474
rclavicle 5.31128e-015 -4.37326e-015
rhumerus -55.4578 12.1302 -81.1691
rradius 52.5769
rwrist 1.64135
rhand -14.8487 -16.2194
rfingers 7.12502
rthumb 11.3106 -45.8944
lclavicle 5.31128e-015 -4.37326e-015
lhumerus -52.8209 7.03308 80.233
lradius 37.1211
lwrist -3.76093
lhand -9.67354 26.6411
lfingers 7.12502
lthumb 16.298 55.9762
rfemur -45.7816 6.1024 22.3246
rtibia 39.2964
rfoot -15.9657 -15.3666
rtoes 2.91178
lfemur -63.456 1.99477 -27.2936
ltibia 85.8671
lfoot -14.2739 12.6052
ltoes -17.7652
911
root 4.68468 22.5628 -16.0857 25.9459 0.908476 1.22304
lowerback -6.45573 -1.70216 -4.22292
upperback -12.0865 -2.1734 1.55633
thorax -9.00019 -0.626488 4.0432
lowerneck -9.59841 0.270317 -4.46796
upperneck 50.9964 4.01636 -3.86239
head 23.7909 0.112538 -0.504552
rclavicle -5.95733e-015 5.56597e-015
rhumerus -55.7538 12.6183 -81.5099
rradius 53.6903
rwrist 1.35629
rhand -14.8713 -16.3067
rfingers 7.12502
rthumb 11.2889 -45.9829
lclavicle -5.95733e-015 5.56597e-015
lhumerus -52.9926 7.13726 80.0837
lradius 37.1098
lwrist -3.77541
lhand -9.83136 26.7838
lfingers 7.12502
lthumb 16.146 56.1313
rfemur -45.6419 6.25143 22.169
rtibia 39.397
rfoot -16.5067 -15.5682
rtoes 3.64191
lfemur -63.5186 1.71326 -27.3454
ltibia 84.0256
lfoot -14.3853 12.9347
ltoes -17.8958
912
root 4.69218 22.5627 -16.0172 25.8481 0.813863 1.28482
lowerback -6.6194 -1.65459 -4.22287
upperback -11.894 -2.10093 1.51289
thorax -8.69478 -0.605179 3.9848
lowerneck -9.68483 0.263405 -4.51649
upperneck 50.9952 4.01231 -3.82114
head 23.8231 0.105791 -0.471244
rclavicle -1.38404e-014 -1.13307e-014
rhumerus -55.611 12.9983 -81.7318
rradius 54.6723
rwrist 1.11549
rhand -15.2974 -16.1306
rfingers 7.12502
rthumb 10.8779 -45.8288
lclavicle -1.38404e-014 -1.13307e-014
lhumerus -52.7428 7.20182 80.0422
lradius 37.1632
lwrist -3.76466
lhand -9.82182 26.8155
lfingers 7.12502
lthumb 16.1552 56.1623
rfemur -45.325 6.42811 22.0136
rtibia 39.5158
rfoot -17.2769 -15.6122
rtoes 5.336
lfemur -63.284 1.48197 -27.4041
ltibia 82.0338
lfoot -14.6548 13.4271
ltoes -18.3394
913
root 4.69633 22.5574 -15.9648 26.0402 0.913332 1.42437
lowerback -6.53481 -1.68568 -4.21336
upperback -11.9236 -2.15046 1.46078
thorax -8.77386 -0.630689 3.92768
lowerneck -9.96603 0.26881 -4.59924
upperneck 51.0511 4.05328 -3.75266
head 24.0019 0.105636 -0.408666
rclavicle 1.12189e-014 2.22639e-014
rhumerus -55.5697 13.4041 -81.992
rradius 55.6701
rwrist 0.960853
rhand -15.0535 -16.8943
rfingers 7.12502
rthumb 11.1132 -46.58
lclavicle 1.12189e-014 2.22639e-014
lhumerus -52.6477 7.29073 79.9284
lradius 37.3118
lwrist -3.73553
lhand -9.90802 26.7125
lfingers 7.12502
lthumb 16.0722 56.0659
rfemur -45.3895 6.53528 21.7833
rtibia 39.6625
rfoot -17.9005 -15.7889
rtoes 6.5505
lfemur -63.4053 1.09842 -27.4795
ltibia 79.9196
lfoot -14.8014 13.8024
ltoes -18.505
914
root 4.70606 22.5557 -15.8992 25.988 0.871948 1.51215
lowerback -6.50096 -1.66514 -4.24177
upperback -11.9944 -2.12697 1.43344
thorax -8.87689 -0.613515 3.91751
lowerneck -9.65662 0.278011 -4.59131
upperneck 51.1215 4.06167 -3.79154
head 23.945 0.110078 -0.434192
rclavicle -1.86982e-014 1.47101e-014
rhumerus -55.8867 13.8634 -82.2748
rradius 56.6184
rwrist 0.825422
rhand -15.203 -16.9765
rfingers 7.12502
rthumb 10.9689 -46.6699
lclavicle -1.86982e-014 1.47101e-014
lhumerus -52.8843 7.35151 79.8152
lradius 37.4353
lwrist -3.5248
lhand -10.1169 26.7496
lfingers 7.12502
lthumb 15.8711 56.1192
rfemur -45.1363 6.6607 21.6091
rtibia 39.8032
rfoot -18.6524 -15.8693
rtoes 7.76116
lfemur -63.098 0.751798 -27.5054
ltibia 77.6563
lfoot -14.9619 14.3561
ltoes -18.3303
915
root 4.71371 22.5559 -15.8351 26.039 0.712757 1.5337
lowerback -6.69875 -1.59574 -4.24097
upperback -11.8917 -2.02412 1.40492
thorax -8.65697 -0.572034 3.87665
lowerneck -9.74234 0.272319 -4.65531
upperneck 51.0965 4.07105 -3.76431
head 23.9527 0.104172 -0.401927
rclavicle 1.3213e-014 2.78299e-015
rhumerus -55.7804 14.2578 -82.4468
rradius 57.4835
rwrist 0.729435
rhand -14.9669 -17.8566
rfingers 7.12502
rthumb 11.1967 -47.5379
lclavicle 1.3213e-014 2.78299e-015
lhumerus -52.8197 7.29705 79.8435
lradius 37.9342
lwrist -2.91114
lhand -9.99808 27.1709
lfingers 7.12502
lthumb 15.9855 56.5313
rfemur -45.0234 6.83031 21.4844
rtibia 39.9661
rfoot -19.1085 -15.866
rtoes 8.21181
lfemur -62.8437 0.625742 -27.5269
ltibia 75.2782
lfoot -15.2063 14.7474
ltoes -18.3055
916
root 4.72424 22.5536 -15.7712 26.1144 0.649086 1.5764
lowerback -6.7064 -1.56042 -4.14197
upperback -11.8854 -1.98047 1.35284
thorax -8.65254 -0.561919 3.76507
lowerneck -9.89884 0.27334 -4.6912
upperneck 51.1304 4.09741 -3.74559
head 24.0581 0.105093 -0.379583
rclavicle -1.0107e-014 -1.47101e-014
rhumerus -55.7951 14.6579 -82.6635
rradius 58.3066
rwrist 0.771399
rhand -14.9065 -17.8066
rfingers 7.12502
rthumb 11.2549 -47.4847
lclavicle -1.0107e-014 -1.47101e-014
lhumerus -52.8316 7.3116 79.7637
lradius 38.2117
lwrist -2.53452
lhand -10.2677 27.1685
lfingers 7.12502
lthumb 15.7259 56.5495
rfemur -44.9348 6.91915 21.3646
rtibia 40.1317
rfoot -19.5684 -15.8975
rtoes 8.46815
lfemur -62.5646 0.364304 -27.5118
ltibia 72.8006
lfoot -15.3926 15.1793
ltoes -18.3016
917
root 4.73056 22.5448 -15.7185 26.3656 0.70577 1.67433
lowerback -6.82242 -1.58953 -4.1958
upperback -12.0155 -2.01611 1.35101
thorax -8.72964 -0.570735 3.79311
lowerneck -9.73047 0.289756 -4.69139
upperneck 51.1185 4.12813 -3.78438
head 23.9741 0.116193 -0.394972
rclavicle 1.07654e-014 8.15017e-015
rhumerus -56.0004 15.1082 -82.8659
rradius 59.1796
rwrist 0.882571
rhand -15.2825 -16.0878
rfingers 7.12502
rthumb 10.8923 -45.7853
lclavicle 1.07654e-014 8.15017e-015
lhumerus -52.9624 7.35125 79.6888
lradius 38.3941
lwrist -2.21142
lhand -10.5969 27.1391
lfingers 7.12502
lthumb 15.4088 56.5448
rfemur -45.0804 7.04304 21.1644
rtibia 40.2964
rfoot -19.9379 -16.0982
rtoes 8.63714
lfemur -62.4926 -0.0677376 -27.4596
ltibia 70.2452
lfoot -15.2978 15.4978
ltoes -17.7356
918
root 4.73667 22.5378 -15.6676 26.6558 0.832593 1.7889
lowerback -7.02028 -1.63854 -4.21983
upperback -12.0687 -2.07376 1.34341
thorax -8.67049 -0.598731 3.79338
lowerneck -9.75898 0.283899 -4.72726
upperneck 51.0881 4.13978 -3.79787
head 23.9549 0.112992 -0.391494
rclavicle -4.41053e-015 0
rhumerus -55.9649 15.4742 -82.9856
rradius 59.7916
rwrist 1.03154
rhand -13.8566 -17.9229
rfingers 7.12502
rthumb 12.2674 -47.5431
lclavicle -4.41053e-015 0
lhumerus -52.9438 7.37127 79.6637
lradius 38.6653
lwrist -1.78755
lhand -10.8948 27.2707
lfingers 7.12502
lthumb 15.1218 56.6983
rfemur -45.2267 7.13218 20.965
rtibia 40.3791
rfoot -20.2308 -16.3752
rtoes 8.41331
lfemur -62.3983 -0.585923 -27.349
ltibia 67.5762
lfoot -15.3733 15.6695
ltoes -18.1819
919
root 4.74292 22.5404 -15.6154 26.9599 0.851738 1.84232
lowerback -7.03664 -1.64923 -4.24121
upperback -12.2336 -2.08973 1.35153
thorax -8.84716 -0.596435 3.81812
lowerneck -9.80744 0.296928 -4.74917
upperneck 51.1205 4.18436 -3.80631
head 24.0134 0.122726 -0.383777
rclavicle 5.00068e-015 -1.98785e-016
rhumerus -56.0908 15.8902 -83.1483
rradius 60.3984
rwrist 0.985089
rhand -14.1296 -16.7051
rfingers 7.12502
rthumb 12.0041 -46.3408
lclavicle 5.00068e-015 -1.98785e-016
lhumerus -53.0859 7.38509 79.5968
lradius 38.9561
lwrist -1.49543
lhand -11.0447 27.334
lfingers 7.12502
lthumb 14.9774 56.7724
rfemur -45.3635 7.2965 20.7827
rtibia 40.4175
rfoot -20.4724 -16.5954
rtoes 8.20332
lfemur -62.2342 -0.911631 -27.25
ltibia 64.821
lfoot -15.4843 15.644
ltoes -18.308
